<svg id="Capa_1" enable-background="new 0 0 512 512" height="512" viewBox="0 0 512 512" width="512" xmlns="http://www.w3.org/2000/svg"><g><path d="m379.142 384.669c-11.374-19.537-27.034-34.238-27.034-34.238-6.639-7.109-14.07-13.458-22.143-18.941-5.519-3.748-11.342-7.079-17.422-9.961-16.889-8.004-35.769-12.494-55.7-12.494h-.843c-37.599 0-71.479 15.924-95.264 41.395 0 0-15.661 14.702-27.034 34.238 0 0-33.847 59.85-24.197 127.328h39.405 215.024 39.405c9.65-67.477-24.197-127.327-24.197-127.327z" fill="#ade194"/><path d="m403.34 512h-20.569c9.651-67.485-24.194-127.328-24.194-127.328-11.381-19.539-27.037-34.237-27.037-34.237-6.643-7.117-14.07-13.462-22.145-18.942-5.521-3.749-11.34-7.086-17.417-9.96-14.09-6.685-29.561-10.908-45.876-12.123 3.265-.247 6.571-.371 9.898-.371h.845c19.93 0 38.81 4.481 55.702 12.494 6.077 2.874 11.896 6.211 17.417 9.96 8.075 5.48 15.501 11.824 22.145 18.942 0 0 15.656 14.698 27.037 34.237 0 0 33.845 59.843 24.194 127.328z" fill="#80d261"/><path d="m133.701 384.669s-33.847 59.85-24.197 127.328h39.405v-72.653z" fill="#f6a96c"/><path d="m379.142 384.669s33.847 59.85 24.197 127.328h-39.405v-72.653z" fill="#f6a96c"/><path d="m403.34 512h-20.569c5.521-38.583-3.183-74.674-11.649-98.508l8.024-28.819c0-.001 33.845 59.842 24.194 127.327z" fill="#ea9b58"/><path d="m255.999 365.502c-12.076 0-21.866-9.79-21.866-21.866v-39.567h43.732v39.567c0 12.076-9.79 21.866-21.866 21.866z" fill="#d88a55"/><g fill="#64bf3d"><path d="m206.659 435.122c2.192-2.847 3.51-6.4 3.51-10.263 0-9.305-7.57-16.875-16.875-16.875h-14.99c-2.761 0-5 2.239-5 5v51.606c0 2.727 2.285 5 5.022 5 0 0 13.786-.062 17.586-.062 10.417 0 18.891-8.474 18.891-18.891.001-6.423-3.229-12.101-8.144-15.515zm-13.364-17.137c3.791 0 6.875 3.084 6.875 6.875s-3.084 6.875-6.875 6.875c-1.112 0-9.99.014-9.99.014v-13.763h9.99zm2.618 41.544c-2.301 0-8.254.022-12.608.04v-17.804c1.437-.006 12.608-.017 12.608-.017 4.902 0 8.891 3.988 8.891 8.891s-3.989 8.89-8.891 8.89z"/><path d="m336.421 408.925c-2.314-1.508-5.413-.851-6.918 1.462l-12.164 18.687-12.291-18.823c-1.51-2.313-4.61-2.963-6.92-1.453-2.313 1.51-2.963 4.608-1.453 6.92l15.666 23.994-.061 24.867c-.007 2.761 2.227 5.005 4.987 5.012h.013c2.756 0 4.993-2.23 5-4.988l.061-24.883 15.543-23.876c1.507-2.315.851-5.412-1.463-6.919z"/><path d="m257.758 407.985c-16.985 0-30.803 13.818-30.803 30.803s13.818 30.803 30.803 30.803c16.984 0 30.803-13.818 30.803-30.803s-13.819-30.803-30.803-30.803zm0 51.606c-11.471 0-20.803-9.333-20.803-20.803s9.333-20.803 20.803-20.803 20.803 9.332 20.803 20.803-9.332 20.803-20.803 20.803z"/></g><path d="m425.648 128.361c-35.211-133.214-169.649-128.338-169.649-128.338s-134.438-4.876-169.649 128.338c0 0-34.285 140.603 106.777 181.968h62.872 62.872c141.063-41.365 106.777-181.968 106.777-181.968z" fill="#766e6e"/><path d="m318.87 310.328h-21.712c141.068-41.766 106.779-183.74 106.779-183.74-23.649-90.362-92.081-117.801-134.455-126.072 34.948 2.812 127.781 20.476 156.167 127.843 0 0 34.289 140.604-106.779 181.969z" fill="#5b5555"/><path d="m255.999 328.894c-65.51 0-118.616-53.106-118.616-118.616v-91.435h237.231v91.435c.001 65.51-53.105 118.616-118.615 118.616z" fill="#f6a96c"/><path d="m374.613 118.842v91.432c0 65.518-53.106 118.624-118.614 118.624-3.368 0-6.716-.144-10.011-.422 60.821-5.078 108.602-56.062 108.602-118.202v-91.432z" fill="#ea9b58"/><g><g><path d="m204.288 231.369c-4.142 0-7.5-3.358-7.5-7.5v-18.407c0-4.142 3.358-7.5 7.5-7.5s7.5 3.358 7.5 7.5v18.407c0 4.142-3.358 7.5-7.5 7.5z" fill="#766e6e"/></g><g><path d="m307.711 231.369c-4.143 0-7.5-3.358-7.5-7.5v-18.407c0-4.142 3.357-7.5 7.5-7.5s7.5 3.358 7.5 7.5v18.407c0 4.142-3.357 7.5-7.5 7.5z" fill="#766e6e"/></g></g><g><path d="m256 295.042c-12.325 0-23.231-7.849-27.14-19.531-1.314-3.928.805-8.178 4.733-9.492 3.928-1.316 8.178.804 9.492 4.733 1.859 5.557 7.049 9.29 12.915 9.29s11.055-3.733 12.915-9.29c1.314-3.928 5.563-6.047 9.492-4.733 3.928 1.314 6.047 5.563 4.732 9.492-3.909 11.682-14.815 19.531-27.139 19.531z" fill="#766e6e"/></g><g fill="#d77f4a"><circle cx="178.56" cy="244.565" r="15.56"/><circle cx="333.438" cy="244.565" r="15.56"/></g><path d="m389.718 181.157v-87.201h-261.347v87.201h5.654s78.599 6.697 121.974-56.828c23.655 34.644 57.447 48.211 83.207 53.52 20.057 4.134 35.209 3.314 37.154 3.202z" fill="#766e6e"/></g></svg>