<svg id="Capa_1" enable-background="new 0 0 504.502 504.502" height="512" viewBox="0 0 504.502 504.502" width="512" xmlns="http://www.w3.org/2000/svg"><g><path d="m207.258 202.5h-15c-4.142 0-7.5 3.358-7.5 7.5s3.358 7.5 7.5 7.5h15c4.136 0 7.5 3.364 7.5 7.5s-3.364 7.5-7.5 7.5h-75v15h75c12.407 0 22.5-10.093 22.5-22.5s-10.093-22.5-22.5-22.5z" fill="#ff4996"/><path d="m297.243 232.5c-4.136 0-7.5-3.364-7.5-7.5s3.364-7.5 7.5-7.5h15c4.142 0 7.5-3.358 7.5-7.5s-3.358-7.5-7.5-7.5h-15c-12.407 0-22.5 10.093-22.5 22.5s10.093 22.5 22.5 22.5h75v-15z" fill="#ffa754"/><path d="m64.759 285.002v196.592l-24.87 8.29c-3.93 1.31-6.053 5.557-4.744 9.487 1.31 3.93 5.559 6.054 9.487 4.744l29.998-10c3.063-1.021 5.128-3.887 5.128-7.115v-201.998z" fill="#85453d"/><path d="m139.759 285.002v196.592l24.87 8.29c3.93 1.31 6.053 5.557 4.744 9.487-1.31 3.93-5.559 6.054-9.487 4.744l-29.998-10c-3.063-1.021-5.128-3.887-5.128-7.115v-201.998z" fill="#60312c"/><path d="m364.743 285.002v196.592l-24.87 8.29c-3.93 1.31-6.053 5.557-4.744 9.487 1.31 3.93 5.559 6.054 9.487 4.744l29.998-10c3.063-1.021 5.128-3.887 5.128-7.115v-201.998z" fill="#ffd9d4"/><path d="m439.743 285.002v196.592l24.87 8.29c3.93 1.31 6.053 5.557 4.744 9.487-1.31 3.93-5.559 6.054-9.487 4.744l-29.998-10c-3.063-1.021-5.128-3.887-5.128-7.115v-201.998z" fill="#ffb4a9"/><path d="m327.26 45v90l-30 18-30-108z" fill="#ff1b7c"/><path d="m297.26 45v108l-45 27-30-135z" fill="#ff4996"/><path d="m252.26 45v135l-75-45v-90z" fill="#ffcb63"/><path d="m252.26 0-75 45 75 45 75-45z" fill="#49c9ff"/><path d="m147.259 240c0-11.046-8.954-20-20-20h-30v110h50z" fill="#ff4996"/><path d="m117.259 300-20 59.403h35.001c6.634 9.429 17.593 15.597 29.999 15.597v-35.335c0-15.211-5.671-29.09-15-39.665z" fill="#ffa754"/><path d="m117.259 240c0-11.046-8.954-20-20-20h-20c-11.046 0-20 8.954-20 20v90h60z" fill="#ff6b8a"/><path d="m117.259 300h-60c-9.329 10.575-15 24.454-15 39.665l.001 35.335c12.406 0 23.365-6.168 30-15.597 6.635 9.43 17.594 15.597 30 15.597s23.365-6.168 30-15.597l-.001-19.738c0-15.211-5.672-29.09-15-39.665z" fill="#ffcb63"/><path d="m427.243 220h-30v120h50v-100c0-11.046-8.954-20-20-20z" fill="#ff8646"/><path d="m397.243 220h-20c-11.046 0-20 8.954-20 20v60l60 40v-100c0-11.046-8.954-20-20-20z" fill="#ffa754"/><path d="m447.243 300h-30l15 75h30v-35.335c0-15.211-5.671-29.09-15-39.665z" fill="#49c9ff"/><path d="m417.243 300h-60c-9.329 10.575-15 24.454-15 39.665v35.335h90v-35.335c0-15.211-5.671-29.09-15-39.665z" fill="#7dd9ff"/><path d="m416.336 129.547-14.092 60.453c24.853 0 45-20.147 45-45z" fill="#ffb4a9"/><path d="m417.244 145c0-5.429-.321-10.634-.908-15.453l-41.095-20.546c-10.928 8.21-17.997 21.278-17.997 35.998 0 24.853 20.147 45 45 45 8.285.001 15-20.146 15-44.999z" fill="#ffd9d4"/><path d="m402.244 100 14.899 39.832c9.413 3.341 19.543 5.168 30.101 5.168 0-24.853-20.147-45-45-45z" fill="#60312c"/><path d="m402.244 100c-10.132 0-19.481 3.35-27.003 9.002 10.532 14.02 25.066 24.856 41.901 30.831-.854-22.418-7.196-39.833-14.898-39.833z" fill="#85453d"/><path d="m118.049 65c-2.811-5.907-8.816-10-15.793-10s-12.982 4.093-15.793 10c-9.665 0-17.5 7.835-17.5 17.5s7.835 17.5 17.5 17.5h31.586c9.665 0 17.5-7.835 17.5-17.5s-7.835-17.5-17.5-17.5z" fill="#40211d"/><path d="m102.256 100v90c24.853 0 45-20.147 45-45s-20.147-45-45-45z" fill="#60312c"/><path d="m117.256 145c0-24.853-6.716-45-15-45-24.853 0-45 20.147-45 45s20.147 45 45 45c8.284 0 15-20.147 15-45z" fill="#85453d"/></g></svg>