<?xml version="1.0" encoding="iso-8859-1"?>
<!-- Generator: Adobe Illustrator 19.0.0, SVG Export Plug-In . SVG Version: 6.00 Build 0)  -->
<svg version="1.1" id="Capa_1" xmlns="http://www.w3.org/2000/svg" xmlns:xlink="http://www.w3.org/1999/xlink" x="0px" y="0px"
	 viewBox="0 0 512 512" style="enable-background:new 0 0 512 512;" xml:space="preserve">
<path style="fill:#FF772B;" d="M369.5,252.881v75c24.853,0,45-20.147,45-45L369.5,252.881z"/>
<path style="fill:#FF973E;" d="M384.5,282.881l-30-30l-30,30c0,24.853,20.147,45,45,45C377.784,327.881,384.5,307.734,384.5,282.881
	z"/>
<path style="fill:#6CDFB4;" d="M394.5,192.881h-30l20,90h30v-70C414.5,201.835,405.546,192.881,394.5,192.881z"/>
<path style="fill:#7BFFCD;" d="M364.5,192.881h-20c-11.046,0-20,8.954-20,20v70h60v-70C384.5,201.835,375.546,192.881,364.5,192.881
	z"/>
<path style="fill:#63352F;" d="M369.5,72.881v90c24.853,0,45-20.147,45-45S394.353,72.881,369.5,72.881z"/>
<path style="fill:#864941;" d="M384.5,117.881c0-24.853-6.716-45-15-45c-24.853,0-45,20.147-45,45s20.147,45,45,45
	C377.784,162.881,384.5,142.734,384.5,117.881z"/>
<path style="fill:#CC8073;" d="M142.5,82.881v80c24.853,0,45-20.147,45-45c0-5.261-0.912-10.307-2.571-15L142.5,82.881z"/>
<path style="fill:#E59F8F;" d="M100.071,102.881c-1.659,4.693-2.571,9.739-2.571,15c0,24.853,20.147,45,45,45
	c8.284,0,15-20.147,15-45c0-5.261-0.304-10.307-0.857-15l-14.143-20L100.071,102.881z"/>
<path style="fill:#63352F;" d="M142.5,72.881l14.143,30h28.286C178.751,85.405,162.092,72.881,142.5,72.881z"/>
<path style="fill:#864941;" d="M142.5,72.881c-19.592,0-36.251,12.524-42.429,30h56.572C154.583,85.405,149.031,72.881,142.5,72.881
	z"/>
<path style="fill:#E44670;" d="M187.188,209.465c-1.624-9.415-9.809-16.584-19.688-16.584h-11.194l22.833,142.315h29.707
	L187.188,209.465z"/>
<path style="fill:#FF6288;" d="M167.178,209.465c-0.897-9.415-5.417-16.584-10.872-16.584H117.5
	c-9.879,0-18.064,7.169-19.688,16.584l-21.659,125.73h102.985L167.178,209.465z"/>
<circle style="fill:#63352F;" cx="195.33" cy="72.121" r="25"/>
<circle style="fill:#864941;" cx="89.67" cy="72.121" r="25"/>
<circle cx="142.5" cy="222.881" r="7.5"/>
<circle cx="142.5" cy="252.881" r="7.5"/>
<path d="M369.5,170.381c28.949,0,52.5-23.551,52.5-52.5s-23.551-52.5-52.5-52.5s-52.5,23.551-52.5,52.5
	S340.551,170.381,369.5,170.381z M369.5,80.381c20.678,0,37.5,16.822,37.5,37.5s-16.822,37.5-37.5,37.5s-37.5-16.822-37.5-37.5
	S348.822,80.381,369.5,80.381z"/>
<path d="M422,220.094c50.271-3.842,90-45.976,90-97.214c0-4.142-3.358-7.5-7.5-7.5s-7.5,3.358-7.5,7.5
	c0,43.344-33.605,78.961-76.125,82.229c-3.362-11.39-13.91-19.729-26.375-19.729h-50c-12.651,0-23.327,8.589-26.52,20.24
	c-24.683,1.761-46.67,13.43-61.984,31.051c-15.315-17.622-37.304-29.291-61.989-31.051c-3.224-11.872-13.982-20.24-26.507-20.24h-50
	c-12.344,0-22.968,8.13-26.359,19.731C48.633,201.846,15,166.178,15,122.881c0-4.142-3.358-7.5-7.5-7.5s-7.5,3.358-7.5,7.5
	c0,50.632,38.91,92.456,88.396,97.07L68.763,333.922c-0.375,2.18,0.23,4.414,1.655,6.105c1.425,1.692,3.524,2.668,5.736,2.668
	h26.549l-9.249,106.628l-25.326,8.442c-3.93,1.31-6.053,5.558-4.744,9.487c1.048,3.143,3.974,5.131,7.114,5.13
	c0.786,0,1.586-0.125,2.373-0.387l30-10c2.837-0.946,4.842-3.487,5.101-6.467l10.382-119.686c0.182-2.094-0.524-4.168-1.944-5.717
	c-1.421-1.549-3.426-2.431-5.528-2.431H85.056l20.147-116.956c1.035-6.002,6.207-10.359,12.296-10.359h50
	c6.09,0,11.262,4.356,12.296,10.358l0.235,1.365c-0.026,0.256-0.04,0.515-0.04,0.777c0,1.147,0.265,2.23,0.726,3.203l19.227,111.612
	h-59.062c-4.142,0-7.5,3.358-7.5,7.5s3.358,7.5,7.5,7.5h26.358l9.788,112.833c0.259,2.98,2.263,5.521,5.101,6.467l30,10
	c0.787,0.262,1.586,0.387,2.373,0.387c3.14,0,6.066-1.988,7.114-5.13c1.31-3.93-0.814-8.177-4.744-9.487l-25.326-8.442
	l-9.249-106.628h26.549c2.212,0,4.311-0.976,5.736-2.668c1.425-1.691,2.031-3.926,1.655-6.105l-19.461-112.97
	c20.236,2.485,38.031,12.976,50.101,28.205c-8.33,13.712-13.128,29.792-13.128,46.975c0,18.548,5.558,36.385,16.074,51.582
	c1.401,2.024,3.706,3.232,6.167,3.232s4.767-1.208,6.167-3.232c10.521-15.205,16.083-33.042,16.083-51.582
	c0-17.183-4.798-33.262-13.128-46.975c12.424-15.675,30.913-26.328,51.887-28.4v62.124c0,14.13,5.622,26.965,14.733,36.412
	l-11.279,130.031l-25.326,8.442c-3.93,1.31-6.053,5.557-4.744,9.487c1.048,3.143,3.974,5.13,7.114,5.13
	c0.786,0,1.586-0.125,2.373-0.387l30-10c2.838-0.946,4.842-3.487,5.101-6.467l10.911-125.782c7.105,3.595,15.125,5.634,23.617,5.634
	s16.512-2.039,23.617-5.634l10.911,125.782c0.259,2.98,2.263,5.521,5.101,6.467l30,10c0.787,0.262,1.586,0.387,2.373,0.387
	c3.14,0,6.066-1.988,7.114-5.13c1.31-3.93-0.814-8.177-4.744-9.487l-25.326-8.442l-11.279-130.031
	c9.113-9.446,14.735-22.281,14.735-36.411V220.094z M255.992,328.51c-4.763-10.053-7.242-21.056-7.242-32.379
	c0-11.554,2.6-22.511,7.246-32.319c4.646,9.808,7.246,20.765,7.246,32.319C263.241,307.45,260.76,318.452,255.992,328.51z
	 M344.5,200.381h50c6.893,0,12.5,5.607,12.5,12.5v62.5h-75v-62.5C332,205.988,337.607,200.381,344.5,200.381z M332.755,290.381
	h73.491c-3.484,17.096-18.635,30-36.745,30S336.239,307.477,332.755,290.381z"/>
<path d="M89.667,104.619c0.689,0,1.372-0.029,2.054-0.071c-1.12,4.26-1.721,8.727-1.721,13.333c0,28.949,23.551,52.5,52.5,52.5
	s52.5-23.551,52.5-52.5c0-4.606-0.601-9.073-1.721-13.333c0.681,0.042,1.365,0.071,2.054,0.071c8.681,0,16.843-3.38,22.981-9.519
	c12.671-12.672,12.671-33.29,0-45.962c-6.138-6.139-14.3-9.519-22.981-9.519s-16.843,3.38-22.981,9.519
	c-5.523,5.522-8.804,12.685-9.408,20.387c-6.286-2.668-13.196-4.145-20.444-4.145s-14.157,1.477-20.444,4.145
	c-0.605-7.703-3.885-14.865-9.408-20.387c-6.138-6.139-14.3-9.519-22.981-9.519s-16.843,3.38-22.981,9.519
	c-12.671,12.672-12.671,33.29,0,45.962C72.824,101.239,80.986,104.619,89.667,104.619z M142.5,155.381
	c-20.678,0-37.5-16.822-37.5-37.5c0-2.568,0.261-5.076,0.755-7.5h73.491c0.494,2.424,0.755,4.932,0.755,7.5
	C180,138.559,163.178,155.381,142.5,155.381z M182.958,59.745c3.306-3.305,7.7-5.125,12.375-5.125s9.069,1.82,12.375,5.125
	c6.823,6.823,6.823,17.926,0,24.749c-3.306,3.305-7.7,5.125-12.375,5.125c-4.628,0-8.979-1.79-12.273-5.034
	c-0.563-0.685-1.142-1.356-1.739-2.012c-2.252-3.006-3.488-6.631-3.488-10.455C177.833,67.445,179.653,63.05,182.958,59.745z
	 M169.766,92.175c0.643,0.816,1.327,1.604,2.053,2.365c0.222,0.279,0.447,0.556,0.661,0.841h-59.96
	c0.215-0.285,0.439-0.562,0.661-0.841c0.726-0.76,1.41-1.549,2.053-2.365c6.842-7.253,16.531-11.794,27.266-11.794
	S162.923,84.922,169.766,92.175z M77.292,59.745c3.306-3.305,7.7-5.125,12.375-5.125s9.069,1.82,12.375,5.125
	c3.305,3.306,5.125,7.7,5.125,12.375c0,3.823-1.236,7.448-3.488,10.455c-0.597,0.655-1.176,1.327-1.739,2.012
	c-3.294,3.244-7.645,5.034-12.273,5.034c-4.674,0-9.069-1.82-12.375-5.125C70.47,77.67,70.47,66.568,77.292,59.745z"/>
<g>
</g>
<g>
</g>
<g>
</g>
<g>
</g>
<g>
</g>
<g>
</g>
<g>
</g>
<g>
</g>
<g>
</g>
<g>
</g>
<g>
</g>
<g>
</g>
<g>
</g>
<g>
</g>
<g>
</g>
</svg>
