<svg id="Capa_1" enable-background="new 0 0 510 510" height="512" viewBox="0 0 510 510" width="512" xmlns="http://www.w3.org/2000/svg"><g id="XMLID_285_"><path id="XMLID_3871_" d="m265 265-265-10v-255h255z" fill="#fff4f4"/><path id="XMLID_4017_" d="m127.5 259.811 137.5 5.189-10-265h-127.5z" fill="#f2e6e6"/><path id="XMLID_4295_" d="m510 255-255 10v-265h255z" fill="#fff4f4"/><path id="XMLID_3011_" d="m382.5 0v260l127.5-5v-255z" fill="#f2e6e6"/><path id="XMLID_3956_" d="m265 510h-265v-255h255z" fill="#f2e6e6"/><path id="XMLID_4202_" d="m265 510h-137.5v-255h127.5z" fill="#ebd4ce"/><path d="m255 255h255v255h-255z" fill="#f2e6e6"/><path id="XMLID_584_" d="m382.5 255h127.5v255h-127.5z" fill="#ebd4ce"/><path id="XMLID_3737_" d="m185.535 116.924h-43.035v-43.035h-30v43.035h-43.035v30h43.035v43.035h30v-43.035h43.035z" fill="#ff6c6c"/><path id="XMLID_391_" d="m179.144 352.069-21.213-21.213-30.431 30.431-30.431-30.431-21.213 21.213 30.431 30.431-30.431 30.431 21.213 21.213 30.431-30.431 30.431 30.431 21.213-21.213-30.431-30.431z" fill="#39f"/><path id="XMLID_3446_" d="m324.465 116.924h116.07v30h-116.07z" fill="#ffc34d"/><g fill="#7acc29"><path id="XMLID_3442_" d="m324.465 367.5h116.07v30h-116.07z"/><path id="XMLID_18_" d="m382.5 343.003c7.846 0 15.363-6.899 15-15-.364-8.127-6.591-15-15-15-7.846 0-15.363 6.899-15 15 .364 8.127 6.591 15 15 15z"/><path id="XMLID_19_" d="m382.5 451.997c7.846 0 15.363-6.899 15-15-.364-8.127-6.591-15-15-15-7.846 0-15.363 6.899-15 15 .364 8.127 6.591 15 15 15z"/></g><path id="XMLID_3990_" d="m142.5 116.924v-43.035h-15v116.07h15v-43.035h43.035v-30z" fill="#ff3650"/><path id="XMLID_4005_" d="m179.144 352.069-21.213-21.213-30.431 30.431v42.426l30.431 30.431 21.213-21.213-30.431-30.431z" fill="#5b64df"/><path id="XMLID_598_" d="m382.5 367.5h58.035v30h-58.035z" fill="#53b324"/><path id="XMLID_631_" d="m382.5 421.997v30c7.846 0 15.363-6.899 15-15-.364-8.127-6.591-15-15-15z" fill="#53b324"/><path id="XMLID_3037_" d="m382.5 313.003v30c7.846 0 15.363-6.899 15-15-.364-8.127-6.591-15-15-15z" fill="#53b324"/><path id="XMLID_642_" d="m382.5 116.924h58.035v30h-58.035z" fill="#ffa64d"/></g></svg>